# MagicaVoxel @ Ephtracy

# group
g exit

# material
mtllib exit.mtl
usemtl palette

# normals
vn -1 0 0
vn 1 0 0
vn 0 0 1
vn 0 0 -1
vn 0 -1 0
vn 0 1 0

# texcoords
vt 0.845703 0.5
vt 0.966797 0.5

# verts
v -8 0 1
v -8 0 -1
v -8 8 1
v -8 8 -1
v 0 4 -0
v 0 4 -1
v 0 5 -0
v 0 5 -1
v 1 1 -0
v 1 1 -1
v 1 4 -0
v 1 4 -1
v 1 5 -0
v 1 5 -1
v 1 7 -0
v 1 7 -1
v 6 1 -0
v 6 1 -1
v 6 2 -0
v 6 2 -1
v 6 4 -0
v 6 4 -1
v 6 7 -0
v 6 7 -1
v 7 2 -0
v 7 2 -1
v 7 4 -0
v 7 4 -1
v -7 1 -0
v -7 1 -1
v -7 6 -0
v -7 6 -1
v -6 6 -0
v -6 6 -1
v -6 7 -0
v -6 7 -1
v 2 1 -0
v 2 1 -1
v 2 7 -0
v 2 7 -1
v 8 0 1
v 8 0 -1
v 8 8 1
v 8 8 -1
v -8 0 1
v -8 8 1
v -7 1 1
v -7 7 1
v -6 2 1
v -6 4 1
v -6 5 1
v -6 6 1
v -5 4 1
v -5 5 1
v -4 1 1
v -4 2 1
v -4 6 1
v -4 7 1
v -3 1 1
v -3 3 1
v -3 4 1
v -3 7 1
v -2 1 1
v -2 3 1
v -2 4 1
v -2 7 1
v -1 3 1
v -1 4 1
v -1 5 1
v 0 1 1
v 0 4 1
v 0 5 1
v 0 7 1
v 1 1 1
v 1 4 1
v 1 5 1
v 1 7 1
v 2 1 1
v 2 7 1
v 3 1 1
v 3 7 1
v 4 6 1
v 4 7 1
v 5 1 1
v 5 6 1
v 6 1 1
v 6 6 1
v 7 6 1
v 7 7 1
v 8 0 1
v 8 8 1
v -7 1 -0
v -7 6 -0
v -6 2 -0
v -6 4 -0
v -6 5 -0
v -6 6 -0
v -6 7 -0
v -5 4 -0
v -5 5 -0
v -4 1 -0
v -4 2 -0
v -4 6 -0
v -4 7 -0
v -3 1 -0
v -3 3 -0
v -3 4 -0
v -3 7 -0
v -2 1 -0
v -2 3 -0
v -2 4 -0
v -2 7 -0
v -1 3 -0
v -1 4 -0
v -1 5 -0
v 0 1 -0
v 0 4 -0
v 0 5 -0
v 0 7 -0
v 1 1 -0
v 1 4 -0
v 1 5 -0
v 1 7 -0
v 2 1 -0
v 2 7 -0
v 3 1 -0
v 3 7 -0
v 4 6 -0
v 4 7 -0
v 5 1 -0
v 5 6 -0
v 6 1 -0
v 6 2 -0
v 6 4 -0
v 6 7 -0
v 7 2 -0
v 7 4 -0
v -8 0 -1
v -8 8 -1
v -7 1 -1
v -7 6 -1
v -6 6 -1
v -6 7 -1
v 0 4 -1
v 0 5 -1
v 1 1 -1
v 1 4 -1
v 1 5 -1
v 1 7 -1
v 2 1 -1
v 2 7 -1
v 6 1 -1
v 6 2 -1
v 6 4 -1
v 6 7 -1
v 7 2 -1
v 7 4 -1
v 8 0 -1
v 8 8 -1
v -8 0 1
v 8 0 1
v -8 0 -1
v 8 0 -1
v 0 4 -0
v 1 4 -0
v 6 4 -0
v 7 4 -0
v 0 4 -1
v 1 4 -1
v 6 4 -1
v 7 4 -1
v -7 6 -0
v -6 6 -0
v -7 6 -1
v -6 6 -1
v -6 7 -0
v -4 7 -0
v -3 7 -0
v -2 7 -0
v 0 7 -0
v 1 7 -0
v 2 7 -0
v 3 7 -0
v 4 7 -0
v 6 7 -0
v -6 7 -1
v 1 7 -1
v 2 7 -1
v 6 7 -1
v -7 1 -0
v -4 1 -0
v -3 1 -0
v -2 1 -0
v 0 1 -0
v 1 1 -0
v 2 1 -0
v 3 1 -0
v 5 1 -0
v 6 1 -0
v -7 1 -1
v 1 1 -1
v 2 1 -1
v 6 1 -1
v 6 2 -0
v 7 2 -0
v 6 2 -1
v 7 2 -1
v 0 5 -0
v 1 5 -0
v 0 5 -1
v 1 5 -1
v -8 8 1
v 8 8 1
v -8 8 -1
v 8 8 -1

# faces
f 3/2/1 2/2/1 1/2/1
f 4/2/1 2/2/1 3/2/1
f 7/2/1 6/2/1 5/2/1
f 8/2/1 6/2/1 7/2/1
f 11/2/1 10/2/1 9/2/1
f 12/2/1 10/2/1 11/2/1
f 15/2/1 14/2/1 13/2/1
f 16/2/1 14/2/1 15/2/1
f 19/2/1 18/2/1 17/2/1
f 20/2/1 18/2/1 19/2/1
f 23/2/1 22/2/1 21/2/1
f 24/2/1 22/2/1 23/2/1
f 27/2/1 26/2/1 25/2/1
f 28/2/1 26/2/1 27/2/1
f 29/2/2 30/2/2 31/2/2
f 31/2/2 30/2/2 32/2/2
f 33/2/2 34/2/2 35/2/2
f 35/2/2 34/2/2 36/2/2
f 37/2/2 38/2/2 39/2/2
f 39/2/2 38/2/2 40/2/2
f 41/2/2 42/2/2 43/2/2
f 43/2/2 42/2/2 44/2/2
f 47/2/3 46/2/3 45/2/3
f 48/2/3 46/2/3 47/2/3
f 49/1/3 48/1/3 47/1/3
f 50/1/3 48/1/3 49/1/3
f 51/1/3 48/1/3 50/1/3
f 52/1/3 48/1/3 51/1/3
f 53/2/3 50/2/3 49/2/3
f 53/1/3 51/1/3 50/1/3
f 54/2/3 52/2/3 51/2/3
f 54/1/3 51/1/3 53/1/3
f 55/2/3 47/2/3 45/2/3
f 55/1/3 49/1/3 47/1/3
f 56/2/3 54/2/3 53/2/3
f 56/1/3 49/1/3 55/1/3
f 56/2/3 53/2/3 49/2/3
f 57/2/3 52/2/3 54/2/3
f 57/2/3 54/2/3 56/2/3
f 57/1/3 48/1/3 52/1/3
f 58/2/3 46/2/3 48/2/3
f 58/1/3 48/1/3 57/1/3
f 59/2/3 56/2/3 55/2/3
f 59/2/3 57/2/3 56/2/3
f 59/2/3 58/2/3 57/2/3
f 59/2/3 55/2/3 45/2/3
f 60/2/3 58/2/3 59/2/3
f 61/2/3 58/2/3 60/2/3
f 62/2/3 46/2/3 58/2/3
f 62/2/3 58/2/3 61/2/3
f 63/2/3 59/2/3 45/2/3
f 63/1/3 60/1/3 59/1/3
f 64/2/3 61/2/3 60/2/3
f 64/1/3 60/1/3 63/1/3
f 65/1/3 62/1/3 61/1/3
f 65/2/3 61/2/3 64/2/3
f 66/2/3 46/2/3 62/2/3
f 66/1/3 62/1/3 65/1/3
f 67/1/3 65/1/3 64/1/3
f 67/2/3 64/2/3 63/2/3
f 68/2/3 66/2/3 65/2/3
f 68/1/3 65/1/3 67/1/3
f 69/2/3 66/2/3 68/2/3
f 70/2/3 63/2/3 45/2/3
f 70/2/3 67/2/3 63/2/3
f 70/2/3 68/2/3 67/2/3
f 71/1/3 69/1/3 68/1/3
f 71/2/3 68/2/3 70/2/3
f 72/2/3 66/2/3 69/2/3
f 72/1/3 69/1/3 71/1/3
f 73/2/3 46/2/3 66/2/3
f 73/2/3 66/2/3 72/2/3
f 74/1/3 71/1/3 70/1/3
f 74/2/3 70/2/3 45/2/3
f 75/2/3 72/2/3 71/2/3
f 75/1/3 71/1/3 74/1/3
f 76/1/3 73/1/3 72/1/3
f 76/2/3 72/2/3 75/2/3
f 77/2/3 46/2/3 73/2/3
f 77/1/3 73/1/3 76/1/3
f 78/2/3 76/2/3 75/2/3
f 78/2/3 74/2/3 45/2/3
f 78/2/3 77/2/3 76/2/3
f 78/2/3 75/2/3 74/2/3
f 79/2/3 46/2/3 77/2/3
f 79/2/3 77/2/3 78/2/3
f 80/2/3 78/2/3 45/2/3
f 80/1/3 79/1/3 78/1/3
f 81/2/3 46/2/3 79/2/3
f 81/1/3 79/1/3 80/1/3
f 82/2/3 81/2/3 80/2/3
f 83/2/3 46/2/3 81/2/3
f 83/2/3 81/2/3 82/2/3
f 84/2/3 80/2/3 45/2/3
f 84/2/3 82/2/3 80/2/3
f 85/1/3 83/1/3 82/1/3
f 85/2/3 82/2/3 84/2/3
f 86/2/3 84/2/3 45/2/3
f 86/1/3 85/1/3 84/1/3
f 87/1/3 83/1/3 85/1/3
f 87/1/3 85/1/3 86/1/3
f 88/2/3 87/2/3 86/2/3
f 88/1/3 83/1/3 87/1/3
f 89/2/3 46/2/3 83/2/3
f 89/1/3 83/1/3 88/1/3
f 90/2/3 88/2/3 86/2/3
f 90/2/3 86/2/3 45/2/3
f 90/2/3 89/2/3 88/2/3
f 91/2/3 46/2/3 89/2/3
f 91/2/3 89/2/3 90/2/3
f 92/1/4 93/1/4 94/1/4
f 94/1/4 93/1/4 95/1/4
f 95/1/4 93/1/4 96/1/4
f 96/1/4 93/1/4 97/1/4
f 94/2/4 95/2/4 99/2/4
f 95/1/4 96/1/4 99/1/4
f 96/2/4 97/2/4 100/2/4
f 99/1/4 96/1/4 100/1/4
f 92/1/4 94/1/4 101/1/4
f 94/2/4 99/2/4 102/2/4
f 101/1/4 94/1/4 102/1/4
f 99/2/4 100/2/4 102/2/4
f 100/2/4 97/2/4 103/2/4
f 102/2/4 100/2/4 103/2/4
f 97/1/4 98/1/4 103/1/4
f 103/1/4 98/1/4 104/1/4
f 101/2/4 102/2/4 105/2/4
f 102/2/4 103/2/4 105/2/4
f 103/2/4 104/2/4 105/2/4
f 105/2/4 104/2/4 106/2/4
f 106/2/4 104/2/4 107/2/4
f 107/2/4 104/2/4 108/2/4
f 105/1/4 106/1/4 109/1/4
f 106/2/4 107/2/4 110/2/4
f 109/1/4 106/1/4 110/1/4
f 107/1/4 108/1/4 111/1/4
f 110/2/4 107/2/4 111/2/4
f 111/1/4 108/1/4 112/1/4
f 109/2/4 110/2/4 113/2/4
f 110/1/4 111/1/4 113/1/4
f 111/2/4 112/2/4 114/2/4
f 113/1/4 111/1/4 114/1/4
f 114/2/4 112/2/4 115/2/4
f 109/2/4 113/2/4 116/2/4
f 113/2/4 114/2/4 116/2/4
f 114/1/4 115/1/4 117/1/4
f 116/2/4 114/2/4 117/2/4
f 115/2/4 112/2/4 118/2/4
f 117/1/4 115/1/4 118/1/4
f 118/2/4 112/2/4 119/2/4
f 116/1/4 117/1/4 120/1/4
f 120/1/4 117/1/4 121/1/4
f 118/1/4 119/1/4 122/1/4
f 122/1/4 119/1/4 123/1/4
f 124/1/4 125/1/4 126/1/4
f 126/1/4 125/1/4 127/1/4
f 126/2/4 127/2/4 128/2/4
f 128/2/4 127/2/4 129/2/4
f 126/2/4 128/2/4 130/2/4
f 128/1/4 129/1/4 131/1/4
f 130/2/4 128/2/4 131/2/4
f 130/1/4 131/1/4 132/1/4
f 132/1/4 131/1/4 133/1/4
f 133/1/4 131/1/4 134/1/4
f 131/1/4 129/1/4 135/1/4
f 134/1/4 131/1/4 135/1/4
f 133/2/4 134/2/4 136/2/4
f 136/2/4 134/2/4 137/2/4
f 138/2/4 139/2/4 140/2/4
f 140/2/4 139/2/4 141/2/4
f 141/2/4 139/2/4 142/2/4
f 142/2/4 139/2/4 143/2/4
f 138/2/4 140/2/4 146/2/4
f 144/2/4 145/2/4 147/2/4
f 147/2/4 145/2/4 148/2/4
f 143/2/4 139/2/4 149/2/4
f 138/2/4 146/2/4 150/2/4
f 148/2/4 149/2/4 150/2/4
f 147/2/4 148/2/4 150/2/4
f 146/2/4 147/2/4 150/2/4
f 149/2/4 139/2/4 151/2/4
f 150/2/4 149/2/4 151/2/4
f 138/2/4 150/2/4 152/2/4
f 151/2/4 139/2/4 155/2/4
f 152/2/4 153/2/4 156/2/4
f 154/2/4 155/2/4 157/2/4
f 152/2/4 156/2/4 158/2/4
f 156/2/4 157/2/4 158/2/4
f 138/2/4 152/2/4 158/2/4
f 157/2/4 155/2/4 159/2/4
f 158/2/4 157/2/4 159/2/4
f 155/2/4 139/2/4 159/2/4
f 162/2/5 161/2/5 160/2/5
f 163/2/5 161/2/5 162/2/5
f 168/2/5 165/2/5 164/2/5
f 169/2/5 165/2/5 168/2/5
f 170/2/5 167/2/5 166/2/5
f 171/2/5 167/2/5 170/2/5
f 174/2/5 173/2/5 172/2/5
f 175/2/5 173/2/5 174/2/5
f 186/2/5 177/2/5 176/2/5
f 186/2/5 178/2/5 177/2/5
f 186/2/5 179/2/5 178/2/5
f 186/2/5 180/2/5 179/2/5
f 186/2/5 181/2/5 180/2/5
f 187/2/5 181/2/5 186/2/5
f 188/2/5 185/2/5 184/2/5
f 188/2/5 184/2/5 183/2/5
f 188/2/5 183/2/5 182/2/5
f 189/2/5 185/2/5 188/2/5
f 190/2/6 191/2/6 200/2/6
f 191/2/6 192/2/6 200/2/6
f 192/2/6 193/2/6 200/2/6
f 193/2/6 194/2/6 200/2/6
f 194/2/6 195/2/6 200/2/6
f 200/2/6 195/2/6 201/2/6
f 198/2/6 199/2/6 202/2/6
f 197/2/6 198/2/6 202/2/6
f 196/2/6 197/2/6 202/2/6
f 202/2/6 199/2/6 203/2/6
f 204/2/6 205/2/6 206/2/6
f 206/2/6 205/2/6 207/2/6
f 208/2/6 209/2/6 210/2/6
f 210/2/6 209/2/6 211/2/6
f 212/2/6 213/2/6 214/2/6
f 214/2/6 213/2/6 215/2/6
