# MagicaVoxel @ Ephtracy

# group
g painting1

# material
mtllib painting1.mtl
usemtl palette

# normals
vn -1 0 0
vn 1 0 0
vn 0 0 1
vn 0 0 -1
vn 0 -1 0
vn 0 1 0

# texcoords
vt 0.0410156 0.5
vt 0.0683594 0.5
vt 0.373047 0.5
vt 0.462891 0.5
vt 0.638672 0.5
vt 0.966797 0.5

# verts
v -12 0 1
v -12 0 -1
v -12 18 1
v -12 18 -1
v -10 4 1
v -10 4 -0
v -10 5 -0
v -10 8 1
v -10 8 -0
v -10 9 1
v -10 9 -0
v -5 14 1
v -5 14 -0
v -5 15 1
v -5 15 -0
v -4 15 1
v -4 15 -0
v -4 16 1
v -4 16 -0
v -3 7 1
v -3 7 -0
v -3 8 -0
v -3 10 1
v -3 10 -0
v -1 7 1
v -1 7 -0
v -1 8 -0
v -1 11 1
v -1 11 -0
v 1 13 1
v 1 13 -0
v 1 15 1
v 1 15 -0
v 2 15 1
v 2 15 -0
v 2 16 1
v 2 16 -0
v 4 7 1
v 4 7 -0
v 4 9 1
v 4 9 -0
v 7 10 1
v 7 10 -0
v 7 11 -0
v 7 12 1
v 7 12 -0
v 9 4 1
v 9 4 -0
v 9 8 1
v 9 8 -0
v 11 0 -0
v 11 0 -1
v 11 1 -0
v 11 1 -1
v 11 8 1
v 11 8 -0
v 11 17 1
v 11 17 -0
v -11 0 -0
v -11 0 -1
v -11 1 -0
v -11 1 -1
v -11 4 1
v -11 4 -0
v -11 5 -0
v -11 12 1
v -11 12 -0
v -6 12 1
v -6 12 -0
v -6 17 1
v -6 17 -0
v -5 7 1
v -5 7 -0
v -5 8 -0
v -5 9 1
v -5 9 -0
v -3 15 1
v -3 15 -0
v -3 16 1
v -3 16 -0
v -2 7 1
v -2 7 -0
v -2 8 -0
v -2 10 1
v -2 10 -0
v -2 14 1
v -2 14 -0
v -2 15 1
v -2 15 -0
v 1 7 1
v 1 7 -0
v 1 11 1
v 1 11 -0
v 3 15 1
v 3 15 -0
v 3 16 1
v 3 16 -0
v 5 13 1
v 5 13 -0
v 5 15 1
v 5 15 -0
v 7 7 1
v 7 7 -0
v 7 9 1
v 7 9 -0
v 8 4 1
v 8 4 -0
v 8 7 1
v 8 7 -0
v 9 10 1
v 9 10 -0
v 9 12 1
v 9 12 -0
v 12 0 1
v 12 0 -1
v 12 18 1
v 12 18 -1
v -12 0 1
v -12 18 1
v -11 1 1
v -11 4 1
v -11 12 1
v -11 17 1
v -10 4 1
v -10 8 1
v -10 9 1
v -9 4 1
v -9 8 1
v -7 4 1
v -7 8 1
v -6 4 1
v -6 7 1
v -6 8 1
v -6 9 1
v -6 12 1
v -6 17 1
v -5 7 1
v -5 9 1
v -5 14 1
v -5 15 1
v -4 15 1
v -4 16 1
v -3 7 1
v -3 10 1
v -3 15 1
v -3 16 1
v -2 7 1
v -2 10 1
v -2 14 1
v -2 15 1
v -1 7 1
v -1 11 1
v 1 7 1
v 1 11 1
v 1 13 1
v 1 15 1
v 2 15 1
v 2 16 1
v 3 15 1
v 3 16 1
v 4 7 1
v 4 9 1
v 5 13 1
v 5 15 1
v 7 7 1
v 7 9 1
v 7 10 1
v 7 12 1
v 8 1 1
v 8 4 1
v 8 7 1
v 9 4 1
v 9 8 1
v 9 10 1
v 9 12 1
v 11 1 1
v 11 4 1
v 11 8 1
v 11 17 1
v 12 0 1
v 12 18 1
v -11 4 -0
v -11 5 -0
v -11 12 -0
v -10 4 -0
v -10 5 -0
v -10 8 -0
v -10 9 -0
v -10 11 -0
v -6 9 -0
v -6 11 -0
v -6 12 -0
v -6 17 -0
v -5 7 -0
v -5 8 -0
v -5 9 -0
v -5 14 -0
v -5 15 -0
v -4 15 -0
v -4 16 -0
v -3 7 -0
v -3 8 -0
v -3 10 -0
v -3 15 -0
v -3 16 -0
v -2 7 -0
v -2 8 -0
v -2 10 -0
v -2 14 -0
v -2 15 -0
v -1 7 -0
v -1 8 -0
v -1 11 -0
v 1 7 -0
v 1 11 -0
v 1 13 -0
v 1 15 -0
v 2 15 -0
v 2 16 -0
v 3 15 -0
v 3 16 -0
v 4 7 -0
v 4 9 -0
v 5 13 -0
v 5 15 -0
v 7 7 -0
v 7 9 -0
v 7 10 -0
v 7 11 -0
v 7 12 -0
v 8 4 -0
v 8 7 -0
v 8 10 -0
v 9 4 -0
v 9 8 -0
v 9 10 -0
v 9 12 -0
v 11 8 -0
v 11 17 -0
v -11 0 -0
v -11 1 -0
v 8 1 -0
v 11 0 -0
v 11 1 -0
v -12 0 -1
v -12 18 -1
v -11 0 -1
v -11 1 -1
v -11 5 -1
v -11 17 -1
v -10 8 -1
v -10 11 -1
v -7 5 -1
v -7 8 -1
v -6 8 -1
v -6 11 -1
v 1 8 -1
v 1 11 -1
v 8 1 -1
v 8 11 -1
v 11 0 -1
v 11 1 -1
v 11 17 -1
v 12 0 -1
v 12 18 -1
v -12 0 1
v 12 0 1
v -11 0 -0
v 11 0 -0
v -12 0 -1
v -11 0 -1
v 11 0 -1
v 12 0 -1
v -11 1 -0
v 8 1 -0
v 11 1 -0
v -11 1 -1
v 8 1 -1
v 11 1 -1
v 7 10 1
v 9 10 1
v 7 10 -0
v 8 10 -0
v 9 10 -0
v -11 12 1
v -6 12 1
v -11 12 -0
v -6 12 -0
v 1 13 1
v 5 13 1
v 1 13 -0
v 5 13 -0
v -5 14 1
v -2 14 1
v -5 14 -0
v -2 14 -0
v -6 17 1
v 11 17 1
v -6 17 -0
v 11 17 -0
v -11 4 1
v -10 4 1
v 8 4 1
v 9 4 1
v -11 4 -0
v -10 4 -0
v 8 4 -0
v 9 4 -0
v -5 7 1
v -3 7 1
v -2 7 1
v -1 7 1
v 1 7 1
v 4 7 1
v 7 7 1
v 8 7 1
v -5 7 -0
v -3 7 -0
v -2 7 -0
v -1 7 -0
v 1 7 -0
v 4 7 -0
v 7 7 -0
v 8 7 -0
v 9 8 1
v 11 8 1
v 9 8 -0
v 11 8 -0
v -10 9 1
v -6 9 1
v -5 9 1
v 4 9 1
v 7 9 1
v -10 9 -0
v -6 9 -0
v -5 9 -0
v 4 9 -0
v 7 9 -0
v -3 10 1
v -2 10 1
v -3 10 -0
v -2 10 -0
v -1 11 1
v 1 11 1
v -1 11 -0
v 1 11 -0
v 7 12 1
v 9 12 1
v 7 12 -0
v 9 12 -0
v -5 15 1
v -4 15 1
v -3 15 1
v -2 15 1
v 1 15 1
v 2 15 1
v 3 15 1
v 5 15 1
v -5 15 -0
v -4 15 -0
v -3 15 -0
v -2 15 -0
v 1 15 -0
v 2 15 -0
v 3 15 -0
v 5 15 -0
v -4 16 1
v -3 16 1
v 2 16 1
v 3 16 1
v -4 16 -0
v -3 16 -0
v 2 16 -0
v 3 16 -0
v -12 18 1
v 12 18 1
v -12 18 -1
v 12 18 -1

# faces
f 3/2/1 2/2/1 1/2/1
f 4/2/1 2/2/1 3/2/1
f 7/5/1 6/5/1 5/5/1
f 8/5/1 7/5/1 5/5/1
f 9/5/1 7/5/1 8/5/1
f 10/4/1 9/4/1 8/4/1
f 11/4/1 9/4/1 10/4/1
f 14/6/1 13/6/1 12/6/1
f 15/6/1 13/6/1 14/6/1
f 18/6/1 17/6/1 16/6/1
f 19/6/1 17/6/1 18/6/1
f 22/4/1 21/4/1 20/4/1
f 23/4/1 22/4/1 20/4/1
f 24/4/1 22/4/1 23/4/1
f 27/4/1 26/4/1 25/4/1
f 28/4/1 27/4/1 25/4/1
f 29/4/1 27/4/1 28/4/1
f 32/6/1 31/6/1 30/6/1
f 33/6/1 31/6/1 32/6/1
f 36/6/1 35/6/1 34/6/1
f 37/6/1 35/6/1 36/6/1
f 40/4/1 39/4/1 38/4/1
f 41/4/1 39/4/1 40/4/1
f 44/4/1 43/4/1 42/4/1
f 45/4/1 44/4/1 42/4/1
f 46/4/1 44/4/1 45/4/1
f 49/4/1 48/4/1 47/4/1
f 50/4/1 48/4/1 49/4/1
f 53/2/1 52/2/1 51/2/1
f 54/2/1 52/2/1 53/2/1
f 57/2/1 56/2/1 55/2/1
f 58/2/1 56/2/1 57/2/1
f 59/2/2 60/2/2 61/2/2
f 61/2/2 60/2/2 62/2/2
f 63/2/2 64/2/2 65/2/2
f 63/2/2 65/2/2 66/2/2
f 66/2/2 65/2/2 67/2/2
f 68/1/2 69/1/2 70/1/2
f 70/1/2 69/1/2 71/1/2
f 72/5/2 73/5/2 74/5/2
f 72/5/2 74/5/2 75/5/2
f 75/5/2 74/5/2 76/5/2
f 77/6/2 78/6/2 79/6/2
f 79/6/2 78/6/2 80/6/2
f 81/4/2 82/4/2 83/4/2
f 81/4/2 83/4/2 84/4/2
f 84/4/2 83/4/2 85/4/2
f 86/6/2 87/6/2 88/6/2
f 88/6/2 87/6/2 89/6/2
f 90/4/2 91/4/2 92/4/2
f 92/4/2 91/4/2 93/4/2
f 94/6/2 95/6/2 96/6/2
f 96/6/2 95/6/2 97/6/2
f 98/6/2 99/6/2 100/6/2
f 100/6/2 99/6/2 101/6/2
f 102/4/2 103/4/2 104/4/2
f 104/4/2 103/4/2 105/4/2
f 106/3/2 107/3/2 108/3/2
f 108/3/2 107/3/2 109/3/2
f 110/4/2 111/4/2 112/4/2
f 112/4/2 111/4/2 113/4/2
f 114/2/2 115/2/2 116/2/2
f 116/2/2 115/2/2 117/2/2
f 120/2/3 119/2/3 118/2/3
f 121/2/3 119/2/3 120/2/3
f 122/2/3 119/2/3 121/2/3
f 123/2/3 119/2/3 122/2/3
f 124/3/3 121/3/3 120/3/3
f 127/3/3 124/3/3 120/3/3
f 127/5/3 125/5/3 124/5/3
f 128/4/3 126/4/3 125/4/3
f 128/5/3 125/5/3 127/5/3
f 129/3/3 127/3/3 120/3/3
f 129/4/3 128/4/3 127/4/3
f 130/4/3 126/4/3 128/4/3
f 130/4/3 128/4/3 129/4/3
f 131/3/3 129/3/3 120/3/3
f 131/5/3 130/5/3 129/5/3
f 132/5/3 130/5/3 131/5/3
f 133/4/3 126/4/3 130/4/3
f 133/5/3 130/5/3 132/5/3
f 134/4/3 126/4/3 133/4/3
f 135/1/3 123/1/3 122/1/3
f 136/2/3 119/2/3 123/2/3
f 136/1/3 123/1/3 135/1/3
f 137/5/3 134/5/3 133/5/3
f 137/3/3 132/3/3 131/3/3
f 137/5/3 133/5/3 132/5/3
f 138/5/3 134/5/3 137/5/3
f 141/6/3 140/6/3 139/6/3
f 143/3/3 137/3/3 131/3/3
f 145/6/3 142/6/3 141/6/3
f 145/6/3 141/6/3 139/6/3
f 146/6/3 142/6/3 145/6/3
f 147/4/3 144/4/3 143/4/3
f 147/3/3 143/3/3 131/3/3
f 148/4/3 144/4/3 147/4/3
f 149/6/3 145/6/3 139/6/3
f 150/6/3 145/6/3 149/6/3
f 151/3/3 147/3/3 131/3/3
f 153/3/3 151/3/3 131/3/3
f 153/4/3 152/4/3 151/4/3
f 154/4/3 152/4/3 153/4/3
f 157/6/3 156/6/3 155/6/3
f 159/6/3 157/6/3 155/6/3
f 159/6/3 158/6/3 157/6/3
f 160/6/3 158/6/3 159/6/3
f 161/3/3 153/3/3 131/3/3
f 163/6/3 159/6/3 155/6/3
f 164/6/3 159/6/3 163/6/3
f 165/4/3 162/4/3 161/4/3
f 165/3/3 161/3/3 131/3/3
f 166/4/3 162/4/3 165/4/3
f 169/2/3 120/2/3 118/2/3
f 169/3/3 131/3/3 120/3/3
f 169/3/3 165/3/3 131/3/3
f 170/3/3 165/3/3 169/3/3
f 171/3/3 165/3/3 170/3/3
f 172/5/3 170/5/3 169/5/3
f 174/4/3 168/4/3 167/4/3
f 175/4/3 168/4/3 174/4/3
f 176/2/3 169/2/3 118/2/3
f 176/5/3 172/5/3 169/5/3
f 177/4/3 173/4/3 172/4/3
f 177/5/3 172/5/3 176/5/3
f 178/4/3 173/4/3 177/4/3
f 179/2/3 119/2/3 136/2/3
f 180/2/3 176/2/3 118/2/3
f 180/2/3 179/2/3 178/2/3
f 180/2/3 178/2/3 177/2/3
f 180/2/3 177/2/3 176/2/3
f 181/2/3 119/2/3 179/2/3
f 181/2/3 179/2/3 180/2/3
f 185/3/3 183/3/3 182/3/3
f 186/5/3 184/5/3 183/5/3
f 186/3/3 183/3/3 185/3/3
f 187/5/3 184/5/3 186/5/3
f 188/5/3 184/5/3 187/5/3
f 189/5/3 184/5/3 188/5/3
f 190/4/3 189/4/3 188/4/3
f 191/5/3 184/5/3 189/5/3
f 191/4/3 189/4/3 190/4/3
f 192/5/3 184/5/3 191/5/3
f 196/5/3 191/5/3 190/5/3
f 196/5/3 192/5/3 191/5/3
f 196/5/3 193/5/3 192/5/3
f 197/5/3 193/5/3 196/5/3
f 198/5/3 193/5/3 197/5/3
f 199/5/3 193/5/3 198/5/3
f 200/5/3 193/5/3 199/5/3
f 201/3/3 195/3/3 194/3/3
f 202/5/3 196/5/3 195/5/3
f 202/3/3 195/3/3 201/3/3
f 202/5/3 197/5/3 196/5/3
f 203/5/3 197/5/3 202/5/3
f 205/5/3 193/5/3 200/5/3
f 208/5/3 197/5/3 203/5/3
f 209/5/3 197/5/3 208/5/3
f 210/5/3 205/5/3 204/5/3
f 211/3/3 207/3/3 206/3/3
f 212/5/3 210/5/3 209/5/3
f 212/3/3 207/3/3 211/3/3
f 212/5/3 209/5/3 208/5/3
f 212/5/3 208/5/3 207/5/3
f 213/5/3 210/5/3 212/5/3
f 215/5/3 210/5/3 213/5/3
f 216/5/3 210/5/3 215/5/3
f 217/5/3 205/5/3 210/5/3
f 217/5/3 210/5/3 216/5/3
f 218/5/3 205/5/3 217/5/3
f 219/5/3 193/5/3 205/5/3
f 219/5/3 205/5/3 218/5/3
f 221/5/3 193/5/3 219/5/3
f 222/3/3 215/3/3 214/3/3
f 223/3/3 215/3/3 222/3/3
f 224/5/3 216/5/3 215/5/3
f 225/5/3 221/5/3 220/5/3
f 227/3/3 215/3/3 223/3/3
f 228/3/3 215/3/3 227/3/3
f 229/5/3 225/5/3 224/5/3
f 229/3/3 215/3/3 228/3/3
f 229/5/3 224/5/3 215/5/3
f 230/5/3 225/5/3 229/5/3
f 232/3/3 228/3/3 227/3/3
f 232/3/3 227/3/3 226/3/3
f 233/3/3 228/3/3 232/3/3
f 234/5/3 232/5/3 231/5/3
f 234/5/3 233/5/3 232/5/3
f 235/5/3 233/5/3 234/5/3
f 236/5/3 233/5/3 235/5/3
f 237/5/3 225/5/3 230/5/3
f 238/5/3 236/5/3 235/5/3
f 238/5/3 237/5/3 236/5/3
f 239/5/3 225/5/3 237/5/3
f 239/5/3 237/5/3 238/5/3
f 239/5/3 193/5/3 221/5/3
f 239/5/3 221/5/3 225/5/3
f 240/2/4 241/2/4 242/2/4
f 240/2/4 242/2/4 243/2/4
f 243/2/4 242/2/4 244/2/4
f 245/2/4 246/2/4 247/2/4
f 247/2/4 246/2/4 248/2/4
f 248/2/4 246/2/4 249/2/4
f 249/2/4 246/2/4 250/2/4
f 249/5/4 250/5/4 251/5/4
f 251/5/4 250/5/4 252/5/4
f 248/3/4 249/3/4 253/3/4
f 249/5/4 251/5/4 253/5/4
f 251/4/4 252/4/4 254/4/4
f 253/5/4 251/5/4 254/5/4
f 253/3/4 254/3/4 255/3/4
f 254/4/4 252/4/4 255/4/4
f 252/5/4 250/5/4 256/5/4
f 255/4/4 252/4/4 256/4/4
f 253/3/4 255/3/4 257/3/4
f 255/5/4 256/5/4 257/5/4
f 256/5/4 250/5/4 258/5/4
f 257/5/4 256/5/4 258/5/4
f 253/3/4 257/3/4 259/3/4
f 248/3/4 253/3/4 259/3/4
f 257/3/4 258/3/4 259/3/4
f 258/5/4 250/5/4 260/5/4
f 259/3/4 258/3/4 260/3/4
f 259/5/4 260/5/4 262/5/4
f 250/2/4 246/2/4 263/2/4
f 260/5/4 250/5/4 263/5/4
f 262/5/4 260/5/4 263/5/4
f 261/2/4 262/2/4 264/2/4
f 262/2/4 263/2/4 264/2/4
f 263/2/4 246/2/4 265/2/4
f 264/2/4 263/2/4 265/2/4
f 268/2/5 267/2/5 266/2/5
f 269/2/5 267/2/5 268/2/5
f 270/2/5 268/2/5 266/2/5
f 271/2/5 268/2/5 270/2/5
f 272/2/5 267/2/5 269/2/5
f 273/2/5 267/2/5 272/2/5
f 277/3/5 275/3/5 274/3/5
f 278/5/5 276/5/5 275/5/5
f 278/3/5 275/3/5 277/3/5
f 279/5/5 276/5/5 278/5/5
f 282/4/5 281/4/5 280/4/5
f 283/4/5 281/4/5 282/4/5
f 284/4/5 281/4/5 283/4/5
f 287/1/5 286/1/5 285/1/5
f 288/1/5 286/1/5 287/1/5
f 291/6/5 290/6/5 289/6/5
f 292/6/5 290/6/5 291/6/5
f 295/6/5 294/6/5 293/6/5
f 296/6/5 294/6/5 295/6/5
f 299/2/5 298/2/5 297/2/5
f 300/2/5 298/2/5 299/2/5
f 301/3/6 302/3/6 305/3/6
f 305/3/6 302/3/6 306/3/6
f 303/5/6 304/5/6 307/5/6
f 307/5/6 304/5/6 308/5/6
f 309/3/6 310/3/6 317/3/6
f 317/3/6 310/3/6 318/3/6
f 311/3/6 312/3/6 319/3/6
f 319/3/6 312/3/6 320/3/6
f 313/3/6 314/3/6 321/3/6
f 321/3/6 314/3/6 322/3/6
f 315/3/6 316/3/6 323/3/6
f 323/3/6 316/3/6 324/3/6
f 325/4/6 326/4/6 327/4/6
f 327/4/6 326/4/6 328/4/6
f 329/4/6 330/4/6 334/4/6
f 330/5/6 331/5/6 335/5/6
f 334/4/6 330/4/6 335/4/6
f 335/5/6 331/5/6 336/5/6
f 332/4/6 333/4/6 337/4/6
f 337/4/6 333/4/6 338/4/6
f 339/4/6 340/4/6 341/4/6
f 341/4/6 340/4/6 342/4/6
f 343/4/6 344/4/6 345/4/6
f 345/4/6 344/4/6 346/4/6
f 347/4/6 348/4/6 349/4/6
f 349/4/6 348/4/6 350/4/6
f 351/6/6 352/6/6 359/6/6
f 359/6/6 352/6/6 360/6/6
f 353/6/6 354/6/6 361/6/6
f 361/6/6 354/6/6 362/6/6
f 355/6/6 356/6/6 363/6/6
f 363/6/6 356/6/6 364/6/6
f 357/6/6 358/6/6 365/6/6
f 365/6/6 358/6/6 366/6/6
f 367/6/6 368/6/6 371/6/6
f 371/6/6 368/6/6 372/6/6
f 369/6/6 370/6/6 373/6/6
f 373/6/6 370/6/6 374/6/6
f 375/2/6 376/2/6 377/2/6
f 377/2/6 376/2/6 378/2/6
