# MagicaVoxel @ Ephtracy

# group
g robbie-foot

# material
mtllib robbie-foot.mtl
usemtl palette

# normals
vn -1 0 0
vn 1 0 0
vn 0 0 1
vn 0 0 -1
vn 0 -1 0
vn 0 1 0

# texcoords
vt 0.982422 0.5

# verts
v -2 0 3
v -2 0 -4
v -2 1 3
v -2 1 2
v -2 2 2
v -2 2 -4
v -1 0 4
v -1 0 3
v -1 1 4
v -1 1 3
v 1 0 4
v 1 0 3
v 1 1 4
v 1 1 3
v 2 0 3
v 2 0 -4
v 2 1 3
v 2 1 2
v 2 2 2
v 2 2 -4
v -1 0 4
v -1 1 4
v 1 0 4
v 1 1 4
v -2 0 3
v -2 1 3
v -1 0 3
v -1 1 3
v 1 0 3
v 1 1 3
v 2 0 3
v 2 1 3
v -2 1 2
v -2 2 2
v 2 1 2
v 2 2 2
v -2 0 -4
v -2 2 -4
v 2 0 -4
v 2 2 -4
v -1 0 4
v 1 0 4
v -2 0 3
v -1 0 3
v 1 0 3
v 2 0 3
v -2 0 -4
v 2 0 -4
v -1 1 4
v 1 1 4
v -2 1 3
v -1 1 3
v 1 1 3
v 2 1 3
v -2 1 2
v 2 1 2
v -2 2 2
v 2 2 2
v -2 2 -4
v 2 2 -4

# faces
f 3/1/1 2/1/1 1/1/1
f 4/1/1 2/1/1 3/1/1
f 5/1/1 2/1/1 4/1/1
f 6/1/1 2/1/1 5/1/1
f 9/1/1 8/1/1 7/1/1
f 10/1/1 8/1/1 9/1/1
f 11/1/2 12/1/2 13/1/2
f 13/1/2 12/1/2 14/1/2
f 15/1/2 16/1/2 17/1/2
f 17/1/2 16/1/2 18/1/2
f 18/1/2 16/1/2 19/1/2
f 19/1/2 16/1/2 20/1/2
f 23/1/3 22/1/3 21/1/3
f 24/1/3 22/1/3 23/1/3
f 27/1/3 26/1/3 25/1/3
f 28/1/3 26/1/3 27/1/3
f 31/1/3 30/1/3 29/1/3
f 32/1/3 30/1/3 31/1/3
f 35/1/3 34/1/3 33/1/3
f 36/1/3 34/1/3 35/1/3
f 37/1/4 38/1/4 39/1/4
f 39/1/4 38/1/4 40/1/4
f 44/1/5 42/1/5 41/1/5
f 45/1/5 42/1/5 44/1/5
f 47/1/5 44/1/5 43/1/5
f 47/1/5 46/1/5 45/1/5
f 47/1/5 45/1/5 44/1/5
f 48/1/5 46/1/5 47/1/5
f 49/1/6 50/1/6 52/1/6
f 52/1/6 50/1/6 53/1/6
f 51/1/6 52/1/6 55/1/6
f 53/1/6 54/1/6 55/1/6
f 52/1/6 53/1/6 55/1/6
f 55/1/6 54/1/6 56/1/6
f 57/1/6 58/1/6 59/1/6
f 59/1/6 58/1/6 60/1/6
